<?xml version="1.0" encoding="UTF-8"?>
<svg width="88.8mm" height="24.26mm" version="1.1" viewBox="0 0 88.8 24.26" xmlns="http://www.w3.org/2000/svg" xmlns:cc="http://creativecommons.org/ns#" xmlns:dc="http://purl.org/dc/elements/1.1/" xmlns:rdf="http://www.w3.org/1999/02/22-rdf-syntax-ns#">
<title>Juniper Networks logo</title>
<desc>A computer networking equipment and service provider based in Sunnyvale, California, United States</desc>
 <g transform="translate(-82.25 -141.7)">
  <g transform="matrix(.2891 0 0 .2891 58.48 100.8)">
   <g transform="matrix(2.298 0 0 -2.298 244.5 209.1)">
    <path d="m0 0v-5.835l-4.23 5.835h-0.8214v-7.076h0.7254v6.008l4.365-6.008h0.6876v7.076h-0.7266" style="fill:#80b13e"/>
   </g>
   <g transform="matrix(2.298 0 0 -2.298 250.3 209.1)">
    <path d="m0 0v-7.076h4.717v0.6873h-3.963v2.626h3.829v0.7078h-3.829v2.339h3.925v0.716h-4.679" style="fill:#80b13e"/>
   </g>
   <g transform="matrix(2.298 0 0 -2.298 263.7 209.1)">
    <path d="m0 0v-0.716h2.654v-6.36h0.7548v6.36h2.655v0.716h-6.064" style="fill:#80b13e"/>
   </g>
   <g transform="matrix(2.298 0 0 -2.298 300.3 209.1)">
    <path d="m0 0-1.871-5.854-1.891 5.854h-0.6492l-1.901-5.854-1.862 5.854h-0.774l2.283-7.124h0.6582l1.901 5.892 1.91-5.892h0.6492l2.273 7.124h-0.7266" style="fill:#80b13e"/>
   </g>
   <g transform="matrix(2.298 0 0 -2.298 318.2 217.3)">
    <path d="m0 0c0 1.91-0.888 2.941-2.818 2.941-1.919 0-2.798-1.031-2.798-2.941 0-1.92 0.8784-2.951 2.798-2.951 1.93 0 2.818 1.032 2.818 2.951m-6.37 0.0093c0 2.522 1.289 3.648 3.552 3.648 2.273 0 3.572-1.126 3.572-3.648 0-2.531-1.299-3.657-3.572-3.657-2.263 0-3.552 1.127-3.552 3.657" style="fill:#80b13e"/>
   </g>
   <g transform="matrix(2.298 0 0 -2.298 330.5 217.2)">
    <path d="m0 0c1.003 0 1.624 0.3053 1.624 1.423 0 1.098-0.6024 1.384-1.652 1.384h-2.302v-2.807zm-0.21-0.6873h-2.121v-2.884h-0.7344v7.076h3.056c1.642 0 2.387-0.6586 2.387-2.062 0-1.222-0.5826-1.938-1.814-2.101l1.709-2.913h-0.8028l-1.68 2.884" style="fill:#80b13e"/>
   </g>
   <g transform="matrix(2.298 0 0 -2.298 344.6 216.8)">
    <path d="m0 0-1.414-1.547v-2.206h-0.735v7.076h0.735v-3.906l3.581 3.906h0.8682l-2.539-2.779 2.884-4.297h-0.8496l-2.531 3.753" style="fill:#80b13e"/>
   </g>
   <g transform="matrix(2.298 0 0 -2.298 353.8 223.8)">
    <path d="m0 0 0.3822 0.5718c0.849-0.5332 1.681-0.7154 2.53-0.7154 1.462 0 2.111 0.4108 2.111 1.385 0 1.003-0.84 1.146-2.111 1.375-1.528 0.2684-2.56 0.5262-2.56 1.958 0 1.366 0.8784 1.901 2.56 1.901 1.108 0 1.901-0.2485 2.464-0.6305l-0.4008-0.6111c-0.507 0.3346-1.261 0.5548-2.063 0.5548-1.27 0-1.814-0.3545-1.814-1.194 0-0.8988 0.7356-1.07 1.996-1.298 1.547-0.2776 2.664-0.5074 2.664-2.025 0-1.405-0.8976-2.081-2.827-2.081-1.069 0-2.034 0.2185-2.932 0.811" style="fill:#80b13e"/>
   </g>
   <g transform="matrix(2.298 0 0 -2.298 384 141.9)">
    <path d="m0 0c-9.947 0-10.37-4.457-10.37-10.74v-15.44h2.345v15.44c0 4.738-0.1872 8.54 8.025 8.54 0.8808 0 1.661-0.0463 2.364-0.1277v2.235c-0.7248 0.0635-1.507 0.0984-2.364 0.0984" style="fill:#231f20"/>
   </g>
   <g transform="matrix(2.298 0 0 -2.298 117.4 179)">
    <path d="m0 0v15.63h2.393v-15.67c0-4.505-0.0466-8.306 8.212-8.306 8.211 0 8.024 3.8 8.024 8.54v15.44h2.346v-15.44c0-6.289-0.423-10.75-10.37-10.75-9.995 0-10.6 4.457-10.6 10.56" style="fill:#231f20"/>
   </g>
   <g transform="matrix(2.298 0 0 -2.298 222.9 166.2)">
    <path d="m0 0v-15.62h-2.394v15.67c0 4.505 0.0469 8.306-8.212 8.306-8.212 0-8.024-3.801-8.024-8.54v-15.44h-2.346v15.44c0 6.289 0.423 10.75 10.37 10.75 9.995 0 10.6-4.457 10.6-10.56" style="fill:#231f20"/>
   </g>
   <path d="m232.9 202.1h5.276v-58.87h-5.276z" style="fill:#231f20"/>
   <g transform="matrix(2.298 0 0 -2.298 275.7 176.4)">
    <path d="m0 0c4.144 0 6.203 2.019 6.203 6.1 0 4.078-2.222 6.015-6.305 6.015h-9.63v-12.12zm-12.03 14.41h11.99c5.948 0 8.645-2.957 8.645-8.211 0-5.29-2.662-8.507-8.678-8.507h-9.664v-8.901h-2.296v25.62" style="fill:#231f20"/>
   </g>
   <g transform="matrix(2.298 0 0 -2.298 307 168.5)">
    <path d="m0 0h17.46c-0.234 5.114-0.563 9.478-8.024 9.478-7.179 0-9.149-3.895-9.431-9.478m-2.347-1.737c0 7.555 2.159 13.37 11.83 13.37 9.995 0 10.32-6.709 10.28-13.79h-19.8c0.0468-6.241 1.594-10.89 9.713-10.89 4.317 0 6.289 1.174 8.399 2.722l1.314-1.736c-2.346-1.736-5.114-3.096-9.713-3.096-10.14 0-12.01 5.865-12.01 13.42" style="fill:#231f20"/>
   </g>
   <g transform="matrix(2.298 0 0 -2.298 84.3 214.9)">
    <path d="m0 0c9.948 0 10.37 4.458 10.37 10.75v20.48h-2.346v-20.48c0-4.738 0.1879-8.541-8.024-8.541-0.31 0-0.6053 0.0083-0.8921 0.0194v-2.212c0.2886-0.0077 0.5857-0.0123 0.8921-0.0123" style="fill:#231f20"/>
   </g>
   <g transform="matrix(2.298 0 0 -2.298 377.4 195.4)">
    <path d="m0 0c-0.7788 0-1.412-0.6323-1.412-1.41 0-0.777 0.633-1.41 1.412-1.41 0.7764 0 1.409 0.6328 1.409 1.41 0 0.7775-0.6324 1.41-1.409 1.41m0-3.029c-0.8934 0-1.621 0.7267-1.621 1.62s0.7272 1.62 1.621 1.62c0.8922 0 1.618-0.7272 1.618-1.62s-0.726-1.62-1.618-1.62" style="fill:#231f20"/>
   </g>
   <g transform="matrix(2.298 0 0 -2.298 377.8 198.6)">
    <path d="m0 0c0.2538 0 0.3996 0.0738 0.3996 0.3451 0 0.2683-0.1404 0.331-0.4068 0.331h-0.57v-0.6761zm-0.0576-0.2326h-0.5196v-0.7155h-0.2484v1.86h0.8286c0.4716 0 0.6534-0.1928 0.6534-0.5596 0-0.3006-0.1284-0.5086-0.4488-0.5677l0.42-0.7325h-0.2694l-0.4158 0.7155" style="fill:#231f20"/>
   </g>
  </g>
 </g>
</svg>
