<?xml version="1.0" encoding="UTF-8" standalone="no"?>
<!-- Created with Inkscape (http://www.inkscape.org/) -->

<svg
   xmlns:dc="http://purl.org/dc/elements/1.1/"
   xmlns:cc="http://creativecommons.org/ns#"
   xmlns:rdf="http://www.w3.org/1999/02/22-rdf-syntax-ns#"
   xmlns:svg="http://www.w3.org/2000/svg"
   xmlns="http://www.w3.org/2000/svg"
   xmlns:sodipodi="http://sodipodi.sourceforge.net/DTD/sodipodi-0.dtd"
   xmlns:inkscape="http://www.inkscape.org/namespaces/inkscape"
   width="133.28357"
   height="81.308678"
   viewBox="0 0 35.26461 21.51292"
   version="1.1"
   id="svg2201"
   inkscape:version="0.92.0 r15299"
   sodipodi:docname="wartsila.svg">
  <defs
     id="defs2195">
    <clipPath
       id="clipPath82"
       clipPathUnits="userSpaceOnUse">
      <path
         inkscape:connector-curvature="0"
         id="path80"
         d="m -8.504,850.394 v -99.213 h 162.709 l 58.393,99.213 z" />
    </clipPath>
  </defs>
  <sodipodi:namedview
     id="base"
     pagecolor="#ffffff"
     bordercolor="#666666"
     borderopacity="1.0"
     inkscape:pageopacity="0.0"
     inkscape:pageshadow="2"
     inkscape:zoom="6.0627337"
     inkscape:cx="66.14178"
     inkscape:cy="40.154342"
     inkscape:document-units="mm"
     inkscape:current-layer="layer1"
     showgrid="false"
     fit-margin-top="0"
     fit-margin-left="0"
     fit-margin-right="0"
     fit-margin-bottom="0"
     units="px"
     inkscape:window-width="1280"
     inkscape:window-height="744"
     inkscape:window-x="-4"
     inkscape:window-y="-4"
     inkscape:window-maximized="1" />
  <metadata
     id="metadata2198">
    <rdf:RDF>
      <cc:Work
         rdf:about="">
        <dc:format>image/svg+xml</dc:format>
        <dc:type
           rdf:resource="http://purl.org/dc/dcmitype/StillImage" />
        <dc:title></dc:title>
      </cc:Work>
    </rdf:RDF>
  </metadata>
  <g
     inkscape:label="Layer 1"
     inkscape:groupmode="layer"
     id="layer1"
     transform="translate(-79.297677,-161.49418)">
    <g
       id="g76"
       transform="matrix(0.35277777,0,0,-0.35277777,65.429996,453.1236)">
      <g
         clip-path="url(#clipPath82)"
         id="g78">
        <g
           transform="matrix(0.7845721,0,0,-0.7827378,113.36876,793.48938)"
           id="g84">
          <g
             transform="translate(-2.2624,-27.7484)"
             id="g86">
            <path
               inkscape:connector-curvature="0"
               id="path88"
               style="fill:#0079b5;fill-opacity:1;fill-rule:evenodd;stroke:none"
               d="m 0,0 c 4.795,0.081 8.31,2.488 10.045,6.113 0.119,0.248 0.239,0.528 0.342,0.786 0.028,0.071 0.052,0.162 0.077,0.227 L 10.662,7.053 C 10.634,6.93 10.571,6.73 10.502,6.523 9.418,3.234 6.699,-0.988 -3.671,-0.988 c -12.205,0 -26.295,8.523 -31.172,18.329 -4.873,9.807 1.07,17.443 13.281,17.423 9.769,-0.017 18.27,-4.335 24.768,-9.978 2.161,-1.877 4.1,-3.898 5.79,-5.957 C -3.259,33.141 -20.381,29.866 -17.159,14.303 -15.492,6.25 -7.81,-0.133 0,0" />
          </g>
        </g>
        <g
           transform="matrix(0.7845721,0,0,-0.7827378,113.36876,793.48938)"
           id="g90">
          <g
             transform="translate(10.184,-39.8654)"
             id="g92">
            <path
               inkscape:connector-curvature="0"
               id="path94"
               style="fill:#ef7f1a;fill-opacity:1;fill-rule:evenodd;stroke:none"
               d="m 0,0 c -2.828,-1.727 -6.412,-2.459 -9.866,-1.803 -2.625,0.499 -4.954,1.739 -5.663,3.016 0,0 -0.035,0.061 -0.058,0.136 l 0.324,0.162 c 0.043,-0.056 0.068,-0.112 0.068,-0.112 0.658,-1.185 2.879,-2.348 5.401,-2.826 2.205,-0.419 6.566,-0.452 10.199,2.334 4.242,3.555 4.264,11.853 0.689,18.989 -4.084,8.153 -14.182,15.863 -22.661,15.863 -7.045,0 -9.006,-4.662 -8.037,-9.341 -0.001,0.001 -0.001,0.002 -0.002,0.004 -3.217,15.547 13.868,18.828 26.121,4.565 2.227,-2.708 4.027,-5.48 5.335,-8.069 C 6.919,12.881 6.199,3.665 0,0" />
          </g>
        </g>
        <g
           transform="matrix(0.7845721,0,0,-0.7827378,113.36876,793.48938)"
           id="g96">
          <g
             transform="translate(22.1122,13.9385)"
             id="g98">
            <path
               inkscape:connector-curvature="0"
               id="path100"
               style="fill:#000000;fill-opacity:1;fill-rule:evenodd;stroke:none"
               d="M 0,0 0.825,-2.042 H -1.598 L -2.319,-0.497 -2.032,0 Z" />
          </g>
        </g>
        <g
           transform="matrix(0.7845721,0,0,-0.7827378,113.36876,793.48938)"
           id="g102">
          <g
             transform="translate(26.2507,13.9385)"
             id="g104">
            <path
               inkscape:connector-curvature="0"
               id="path106"
               style="fill:#000000;fill-opacity:1;fill-rule:evenodd;stroke:none"
               d="M 0,0 0.825,-2.042 H -1.599 L -2.319,-0.497 -2.032,0 Z" />
          </g>
        </g>
        <g
           transform="matrix(0.7845721,0,0,-0.7827378,113.36876,793.48938)"
           id="g108">
          <g
             transform="translate(29.0806,34.5872)"
             id="g110">
            <path
               inkscape:connector-curvature="0"
               id="path112"
               style="fill:#000000;fill-opacity:1;fill-rule:evenodd;stroke:none"
               d="m 0,0 h 3.458 l -7.983,-18.807 h -4.923 l -0.213,0.365 0.388,0.324 c 0.463,0.387 0.628,1.025 0.412,1.587 L -15.23,0 h 0.104 10e-4 4.371 l 0.213,-0.37 -0.524,-0.437 C -11.649,-1.295 -11.86,-2.1 -11.59,-2.812 l 0.708,-1.869 h 7.228 l 0.142,-0.246 -0.728,-1.964 h -5.805 l 3.595,-9.491 z" />
          </g>
        </g>
        <g
           transform="matrix(0.7845721,0,0,-0.7827378,113.36876,793.48938)"
           id="g114">
          <g
             transform="translate(-2.6451,31.8676)"
             id="g116">
            <path
               inkscape:connector-curvature="0"
               id="path118"
               style="fill:#000000;fill-opacity:1;fill-rule:evenodd;stroke:none"
               d="m 0,0 v -16.087 h -4.287 l -0.213,0.365 0.872,0.728 c 0.483,0.404 0.763,1.002 0.763,1.632 V 2.72 H 1.411 L 1.624,2.35 0.763,1.632 C 0.28,1.228 0,0.63 0,0" />
          </g>
        </g>
        <g
           transform="matrix(0.7845721,0,0,-0.7827378,113.36876,793.48938)"
           id="g120">
          <g
             transform="translate(-12.8237,24.1274)"
             id="g122">
            <path
               inkscape:connector-curvature="0"
               id="path124"
               style="fill:#000000;fill-opacity:1;fill-rule:evenodd;stroke:none"
               d="m 0,0 c -0.555,-0.269 -1.189,-0.439 -1.659,-0.659 -2.515,-1.178 -3.913,-2.091 -3.913,-3.47 0,-1.714 1.287,-2.64 3.587,-2.64 1.683,0 3.727,0.945 4.405,1.396 L 2.907,-5.766 V -8.177 L 2.813,-8.207 C 2.794,-8.213 0.82,-8.83 -1.796,-8.83 c -1.613,0 -3.304,0.387 -4.524,1.033 -1.677,0.891 -2.417,2.277 -2.417,4.01 0,2.692 1.801,3.497 3.546,4.522 0,0 1.742,0.912 2.462,1.223 1.908,0.822 3.969,1.838 3.969,3.626 0,1.842 -2.244,3.239 -4.267,3.239 -2.232,0 -4.571,-1.169 -5.669,-2.008 l -0.521,0.39 0.669,2.831 0.067,0.025 c 0.023,0.008 2.29,0.855 5.204,0.855 5.157,0 7.855,-3.251 7.855,-5.756 C 4.578,2.708 2.826,1.367 0,0" />
          </g>
        </g>
        <g
           transform="matrix(0.7845721,0,0,-0.7827378,113.36876,793.48938)"
           id="g126">
          <g
             transform="translate(4.5181,15.7804)"
             id="g128">
            <path
               inkscape:connector-curvature="0"
               id="path130"
               style="fill:#000000;fill-opacity:1;fill-rule:evenodd;stroke:none"
               d="M 0,0 H -4.287 L -4.5,0.365 -3.628,1.093 c 0.483,0.404 0.763,1.002 0.763,1.632 V 18.807 H 7.259 L 8.145,16.463 H 0 Z" />
          </g>
        </g>
        <g
           transform="matrix(0.7845721,0,0,-0.7827378,113.36876,793.48938)"
           id="g132">
          <g
             transform="translate(-39.653,31.3614)"
             id="g134">
            <path
               inkscape:connector-curvature="0"
               id="path136"
               style="fill:#000000;fill-opacity:1;fill-rule:evenodd;stroke:none"
               d="m 0,0 -3.332,-5.676 0.077,-0.161 c 2.886,-0.648 4.992,-3.003 4.992,-5.146 0,-2.418 -1.982,-4.598 -5.798,-4.598 h -8.011 l -0.212,0.365 1.578,1.319 v 8.826 l 2.36,5.379 h 0.344 v -13.906 h 3.278 c 2.297,0 3.482,1.616 3.482,2.821 0,3.222 -2.807,4.071 -5.103,4.318 l -0.023,0.004 -0.203,0.353 5.132,9.328 H 2.452 L 2.665,2.857 1.871,2.32 C 1.281,1.954 0.675,1.156 0,0" />
          </g>
        </g>
        <g
           transform="matrix(0.7845721,0,0,-0.7827378,113.36876,793.48938)"
           id="g138">
          <g
             transform="translate(-60.1152,13.9385)"
             id="g140">
            <path
               inkscape:connector-curvature="0"
               id="path142"
               style="fill:#000000;fill-opacity:1;fill-rule:evenodd;stroke:none"
               d="M 0,0 0.825,-2.042 H -1.598 L -2.319,-0.497 -2.032,0 Z" />
          </g>
        </g>
        <g
           transform="matrix(0.7845721,0,0,-0.7827378,113.36876,793.48938)"
           id="g144">
          <g
             transform="translate(-55.9766,13.9385)"
             id="g146">
            <path
               inkscape:connector-curvature="0"
               id="path148"
               style="fill:#000000;fill-opacity:1;fill-rule:evenodd;stroke:none"
               d="M 0,0 0.825,-2.042 H -1.599 L -2.319,-0.497 -2.032,0 Z" />
          </g>
        </g>
        <g
           transform="matrix(0.7845721,0,0,-0.7827378,113.36876,793.48938)"
           id="g150">
          <g
             transform="translate(-62.5947,15.7804)"
             id="g152">
            <path
               inkscape:connector-curvature="0"
               id="path154"
               style="fill:#000000;fill-opacity:1;fill-rule:evenodd;stroke:none"
               d="m 0,0 -0.213,0.365 0.388,0.324 c 0.463,0.386 0.628,1.024 0.411,1.587 l -6.369,16.53 h 4.477 L -1.093,18.437 -1.617,18 c -0.584,-0.488 -0.795,-1.293 -0.526,-2.005 l 0.708,-1.869 H 5.794 L 5.936,13.88 5.208,11.916 h -5.805 l 3.595,-9.491 6.45,16.381 h 3.458 L 4.923,0 Z" />
          </g>
        </g>
        <g
           transform="matrix(0.7845721,0,0,-0.7827378,113.36876,793.48938)"
           id="g156">
          <g
             transform="translate(-35.3631,15.7804)"
             id="g158">
            <path
               inkscape:connector-curvature="0"
               id="path160"
               style="fill:#000000;fill-opacity:1;fill-rule:evenodd;stroke:none"
               d="m 0,0 -1.163,2.015 0.178,0.308 h 5.402 v 16.484 h 4.296 l 0.213,-0.37 -0.88,-0.734 C 7.562,17.299 7.282,16.701 7.282,16.071 V 2.323 h 4.517 L 13.146,0 h -0.203 z" />
          </g>
        </g>
        <g
           transform="matrix(0.7845721,0,0,-0.7827378,113.36876,793.48938)"
           id="g162">
          <g
             transform="translate(-69.2289,15.7804)"
             id="g164">
            <path
               inkscape:connector-curvature="0"
               id="path166"
               style="fill:#000000;fill-opacity:1;fill-rule:evenodd;stroke:none"
               d="M 0,0 -0.213,0.365 0.175,0.689 C 0.638,1.075 0.803,1.713 0.586,2.276 L -3.926,14.603 -8.684,0 h -0.003 -3.131 l -0.213,0.365 0.389,0.324 c 0.462,0.386 0.627,1.024 0.41,1.587 L -15.806,14.428 -20.64,0 h -3.834 l -0.213,0.365 0.443,0.225 c 0.694,0.257 1.098,0.926 1.349,1.786 l 5.428,16.43 h 2.47 l 5.028,-13.46 4.463,13.46 h 2.465 L 3.97,0 Z" />
          </g>
        </g>
      </g>
    </g>
  </g>
</svg>
