<svg id="Layer_1" data-name="Layer 1" xmlns="http://www.w3.org/2000/svg" viewBox="0 0 198.36 60.55"><title>logo-vero</title><polygon points="46.73 46.73 52.92 43.7 48.31 42.91 46.73 43.63 41.47 46.22 35.21 49.25 39.89 50.11 41.47 49.32 46.73 46.73" style="fill:#00652e"/><polygon points="46.73 55.44 52.92 52.42 54.29 49.82 55.01 48.46 55.08 48.24 55.01 48.31 54.29 48.67 46.73 52.34 42.12 54.58 41.47 56.02 40.54 58.46 41.47 57.96 46.73 55.44" style="fill:#00652e"/><path d="M35.57,56.3l5.9-2.88,5.26-2.52,7.56-3.74.72-.29,8.35-4.1c.14-.07.22-.14.36-.22-.43-.65-.86-1.3-1.3-2L55,44.21l-.72.29-7.56,3.74-5.26,2.52-6.91,3.38Z" transform="translate(0 0)" style="fill:#00652e"/><polygon points="69.84 52.49 69.62 55.15 69.48 57.17 69.62 57.38 71.35 60.12 74.59 60.12 74.66 60.12 74.59 59.98 69.84 52.49" style="fill:#00652e"/><path d="M69.62,45.14l-13-20.88-1.58,1-.14.07c0,.07.07.14.14.22,3.46,6,7.06,12,10.73,17.86l3.89,6.26,5,7.85,1.58,2.59H79L74.59,53Z" transform="translate(0 0)" style="fill:#00652e"/><path d="M69.62,18.36l1.87.5,3.1.86L82.22,22a57.46,57.46,0,0,1,7-12.74,1.88,1.88,0,0,0-2.3,1.3,2.93,2.93,0,0,0,0,1.37c-1.66,0-3.6.29-4.18,2.23-.36,1.22.29,2.16,1,3.1C82,18.65,80.28,19.37,78,18.72a5.07,5.07,0,0,1-3.46-3A10.27,10.27,0,0,1,74,14.11h.58c1.3-.14,2.88-.43,3.31-1.87.5-1.8-1.51-3-2.74-3.82.86-.5,1.66-.79,1.94-1.8a1.94,1.94,0,0,0-2.52-2.45,1.88,1.88,0,0,0-1.37,1.37c-.29.94.29,1.66.72,2.52-1.44,0-3.67,0-4.32,1.66v.14a2,2,0,0,0,0,1.3,6.63,6.63,0,0,0,2.3,2.38A9.08,9.08,0,0,1,69.62,15a5.05,5.05,0,0,1-3.6.22,5.65,5.65,0,0,1-4-4.25,3.52,3.52,0,0,0,2.45-2.16c.58-1.87-1-3.17-2.38-4a5.87,5.87,0,0,0,.79-1.22,1.85,1.85,0,0,0-1.3-2.3,57.57,57.57,0,0,1-.86,14.47Z" transform="translate(0 0)" style="fill:#00652e"/><polygon points="152.21 26.71 141.26 26.71 141.26 18.36 149.26 18.36 149.26 13.03 141.26 13.03 141.26 5.76 151.78 5.76 151.78 0.43 135.22 0.43 135.22 32.04 152.21 32.04 152.21 26.71" style="fill:#00652e"/><path d="M161.86,32V19.15h2.88l.79,2L170,32h6.48l-6-14.11c3.38-1.3,4.75-4.1,4.75-8.06,0-5.69-3.1-9.14-9.72-9.43h-9.72V32h6Zm0-26.64h3.67c2.3.22,3.67,1.51,3.67,4.39s-1.37,4.18-3.67,4.32a1.58,1.58,0,0,1-.58.07h-3.1Z" transform="translate(0 0)" style="fill:#00652e"/><path d="M49.1,15.41c1.73,3,3.38,5.9,5.11,8.86l.07-.07.72-.43.94-.58L55,21.67l-.72-1.15-1.22-1.94-.79-1.3a9.43,9.43,0,0,1,2,0c.22,0,.43.07.72.07s.79.22,1.15.36c-.36-.5-.79-.94-1.15-1.44-.29-.29-.5-.58-.72-.79A34,34,0,0,0,46.73,9c-.65-.36-1.3-.72-1.94-1a29.92,29.92,0,0,0,1.94,10.58,46,46,0,0,0,2.09,5,29.68,29.68,0,0,1,1.3-3.82c-.79-1.44-1.66-3-2.45-4.39A9.61,9.61,0,0,1,49.1,15.41Z" transform="translate(0 0)" style="fill:#00652e"/><path d="M24,25.2A43.8,43.8,0,0,1,41.47,1.08c.36-.22.72-.43,1-.65H0V60.12H28.8A43.86,43.86,0,0,1,24,25.2Z" transform="translate(0 0)" style="fill:#00652e"/><path d="M60.48,57.46a6.32,6.32,0,0,0-5.47,1,6.49,6.49,0,0,0-.72.65,12.53,12.53,0,0,0-.86,1H64A6.31,6.31,0,0,0,60.48,57.46Z" transform="translate(0 0)" style="fill:#00652e"/><path d="M68.18,57.53l.5-6.91-4-6.48a1.51,1.51,0,0,1-.29-.43,2.39,2.39,0,0,1-.43.22L57.1,47.23l-2.09,4-.72,1.37-.43.79-7.13,3.46-5.26,2.59-1.37.65H51.91a7.89,7.89,0,0,1,2.38-2.74,2.59,2.59,0,0,1,.72-.5,7.64,7.64,0,0,1,10.51,3.24h4.32l-.22-.22Z" transform="translate(0 0)" style="fill:#00652e"/><polygon points="188.28 38.45 183.1 38.45 183.1 40.39 188.28 40.39 189.65 40.39 189.65 60.12 191.74 60.12 191.74 40.39 198.36 40.39 198.36 38.45 188.28 38.45" style="fill:#00652e"/><polygon points="124.63 32.04 132.7 0.43 126.79 0.43 121.32 22.97 121.18 22.97 115.63 0.43 109.73 0.43 117.79 32.04 124.63 32.04" style="fill:#00652e"/><path d="M117.86,47.81c-4.1-1.51-4.61-2.52-4.61-4,0-2.52,1.87-4,4.46-4a5.37,5.37,0,0,1,5.33,4l1.73-.43a7,7,0,0,0-7.06-5.33c-4.18,0-6.41,2.52-6.41,5.69,0,7.2,12.1,4.9,12.1,10.73,0,2.59-1.73,4.32-4.54,4.32-3.46,0-5.47-1.44-6.34-4.75l-1.8.58c1.22,4,3.6,5.9,7.85,5.9,3.6,0,6.84-2.16,6.84-5.83C125.42,51.55,124.13,50.11,117.86,47.81Z" transform="translate(0 0)" style="fill:#00652e"/><path d="M155.88,38.45h-1.66l-7.34,21.67h2.23l2.38-7.06h8.71l2.38,7.06h2.23l-7.27-21.67Zm0,12.67h-3.74l3.46-10.3h.58l3.46,10.3Z" transform="translate(0 0)" style="fill:#00652e"/><path d="M74.59,37.15c2.52-1.3,5-2.59,7.56-4l-.86-1.87-6.7,3.31-5,2.38L67,38.3l1.22,2.09c.5-.29,1-.5,1.44-.72C71.28,38.81,72.94,38,74.59,37.15Z" transform="translate(0 0)" style="fill:#00652e"/><polygon points="165.1 38.45 165.1 40.39 165.53 40.39 171.72 40.39 171.72 60.12 173.74 60.12 173.74 40.39 180.36 40.39 180.36 38.45 165.53 38.45 165.1 38.45" style="fill:#00652e"/><path d="M198.29,21.89V10.58c0-7.78-4.18-10.58-10-10.58s-10,2.81-10,10.58v11.3c0,7.78,4.1,10.58,10,10.58S198.29,29.66,198.29,21.89Zm-14,.79V9.79c0-3.53,1.51-4.46,4-4.46s4,.94,4,4.46V22.68c0,3.46-1.58,4.46-4,4.46S184.32,26.14,184.32,22.68Z" transform="translate(0 0)" style="fill:#00652e"/><polygon points="142.42 38.45 131.54 51.19 131.54 38.45 129.46 38.45 129.46 60.12 131.54 60.12 131.54 54.07 136.08 48.82 142.78 60.12 145.08 60.12 137.38 47.3 145.08 38.45 142.42 38.45" style="fill:#00652e"/><path d="M93.24,41a10.13,10.13,0,0,0-2-.22A6.24,6.24,0,0,0,89.78,53a8.5,8.5,0,0,0,1.44.29,6.29,6.29,0,0,0,2-12.31Z" transform="translate(0 0)" style="fill:#00652e"/><path d="M41.4,26.14a6.26,6.26,0,1,0-3.46,12,5.87,5.87,0,0,0,3.53-.07,6.19,6.19,0,0,0,4.18-4.25,6.29,6.29,0,0,0-4.18-7.7Z" transform="translate(0 0)" style="fill:#00652e"/><polygon points="74.59 49.97 74.09 49.82 74.59 50.54 80.57 60.12 83.81 60.12 78.48 51.55 74.59 49.97" style="fill:#00652e"/><path d="M82.44,30.74l.94,1.87c2.59-1.37,5.18-2.81,7.85-4.18.36-.22.72-.43,1.15-.65a11,11,0,0,1,1.15.79c-.79.43-1.58.86-2.3,1.3s-1.37.72-2.09,1.08a26.29,26.29,0,0,1-.94,4c1-.58,2-1.3,3-2a30.76,30.76,0,0,0,8.71-9.07,27.3,27.3,0,0,0-8.71.43,42.85,42.85,0,0,0-6.12,1.8,8.18,8.18,0,0,1,3.6,1.66l-1.37.72Z" transform="translate(0 0)" style="fill:#00652e"/><path d="M90,.43c.36.22.79.5,1.22.79a44.27,44.27,0,0,1,12.31,13V.43H90Z" transform="translate(0 0)" style="fill:#00652e"/><path d="M91.22,4.75A41.11,41.11,0,0,0,84.17.43H62.86A3.07,3.07,0,0,1,64.15,4a1,1,0,0,1-.14.5,4.59,4.59,0,0,1,1.8,4.75,4.5,4.5,0,0,1-2.09,2.52,4.39,4.39,0,0,0,5.9,1.94.22.22,0,0,1,.14-.07c0-.07-.07-.07-.14-.14a4.19,4.19,0,0,1-1.3-4,3.65,3.65,0,0,1,1.3-1.8,5,5,0,0,1,2.3-.86A2.84,2.84,0,0,1,72,5.11a3.17,3.17,0,0,1,2.59-2.3,2.74,2.74,0,0,1,1.51.07A3.38,3.38,0,0,1,78.41,7a3.22,3.22,0,0,1-.86,1.44,4.09,4.09,0,0,1,1.58,4.18,4.2,4.2,0,0,1-3.38,2.74,4.63,4.63,0,0,0,2.66,2.09A4.54,4.54,0,0,0,81.94,17a4.31,4.31,0,0,1-.5-3.24,4.69,4.69,0,0,1,4.1-3.1c0-.22.07-.36.07-.58a3.23,3.23,0,0,1,4-2.16,4.25,4.25,0,0,1,1.58.86A57.92,57.92,0,0,0,83,23.54L74.59,21.1l-3.46-.94-1.51-.43-10.37-3A54.47,54.47,0,0,0,60.19.43H48.31a10.84,10.84,0,0,0-1.58.79,49.62,49.62,0,0,0-5.26,3.31,41,41,0,0,0-9.29,55.58h6.26l1.87-4.68L35,58.1l-2.23-4.54L37.87,51c-4.82-.86,1.51.29-6.77-1.22l10.37-5.11,5.26-2.52,1.37-.65,6.19,1.08.58.14L55,42.7l6.77-3.24C59.47,35.71,57.17,32,55,28.22A10.84,10.84,0,0,1,54.29,27c-1.15-1.94-2.23-3.82-3.31-5.76a44.44,44.44,0,0,0-1.66,6.26c-.86-1.73-1.8-3.53-2.59-5.4-2.23-5-3.82-10.44-3.1-16a23.77,23.77,0,0,1,3.1,1.37,31.06,31.06,0,0,1,7.56,6,7.17,7.17,0,0,0,.72.79,80.7,80.7,0,0,1,5,6.41,31.3,31.3,0,0,0-5-2,.65.65,0,0,1-.36-.07l.36.5L66.24,37.22l3.38-1.66,5-2.38,11.3-5.54a25.92,25.92,0,0,0-5.62-1.08A57.36,57.36,0,0,1,91.22,23,25.61,25.61,0,0,1,102,22.82c-2.38,5-6.41,8.64-10.73,11.66-1.8,1.3-3.67,2.45-5.47,3.53a48.43,48.43,0,0,0,1.94-6.26c-4.39,2.38-8.71,4.68-13.1,6.91-1.66.79-3.31,1.66-5,2.45-.22.14-.5.22-.72.36l.72,1.22L72.94,48l1.66.65,4.75,1.94,6,9.58h18.14V20.23A41.57,41.57,0,0,0,91.22,4.75Zm-44.5,24.7a7.63,7.63,0,0,1,.22,4.75l-.22.65a7.5,7.5,0,0,1-5.26,4.61,6.52,6.52,0,0,1-3.89-.07,7.56,7.56,0,0,1,3.89-14.62.54.54,0,0,0,.29.07A7.73,7.73,0,0,1,46.73,29.45ZM98.78,49.1a7.63,7.63,0,0,1-7.56,5.47,7.24,7.24,0,0,1-1.8-.29,7.57,7.57,0,0,1,1.8-14.83,6.93,6.93,0,0,1,2.38.29A7.6,7.6,0,0,1,98.78,49.1Z" transform="translate(0 0)" style="fill:#00652e"/></svg>