<svg
    version="1.1"
    xmlns="http://www.w3.org/2000/svg"
    viewBox="0 0 24 24"
    width="24"
    height="24">
  <path id="path" d="M5,10.2c0-1.9,1.5-3.4,3.4-3.4c1.9,0,3.4,1.5,3.4,3.4c0,0.7-0.6,1.2-1.2,1.2c-0.7,0-1.2-0.6-1.2-1.2
    c0-0.5-0.4-0.9-0.9-0.9c-0.5,0-0.9,0.4-0.9,0.9c0,0.7-0.6,1.2-1.2,1.2S5,10.9,5,10.2 M19,15.9c0,0.7-0.6,1.2-1.2,1.2H6.4
    c-0.7,0-1.2-0.6-1.2-1.2c0-0.7,0.6-1.2,1.2-1.2h11.5C18.5,14.7,19,15.3,19,15.9 M13.7,10.9c-0.4-0.6-0.2-1.3,0.3-1.7l2.9-1.9
    c0.6-0.4,1.3-0.2,1.7,0.3c0.4,0.6,0.2,1.3-0.3,1.7l-2.9,1.9c-0.2,0.1-0.5,0.2-0.7,0.2C14.3,11.5,13.9,11.3,13.7,10.9 M21.5,18.5
    c0,0.2-0.1,0.5-0.3,0.6l-2.1,2.1c-0.2,0.2-0.4,0.3-0.6,0.3h-13c-0.2,0-0.5-0.1-0.6-0.3l-2.1-2.1c-0.2-0.2-0.3-0.4-0.3-0.6v-13
    c0-0.2,0.1-0.5,0.3-0.6l2.1-2.1C5,2.6,5.2,2.5,5.5,2.5h13c0.2,0,0.5,0.1,0.6,0.3l2.1,2.1c0.2,0.2,0.3,0.4,0.3,0.6V18.5z M23.3,3.4
    l-2.8-2.8C20.1,0.2,19.6,0,19,0H5C4.4,0,3.9,0.2,3.4,0.7L0.7,3.4C0.2,3.9,0,4.4,0,5v14c0,0.6,0.2,1.2,0.7,1.6l2.8,2.8
    C3.9,23.8,4.4,24,5,24h14c0.6,0,1.2-0.2,1.6-0.7l2.8-2.8c0.4-0.4,0.7-1,0.7-1.6V5C24,4.4,23.8,3.9,23.3,3.4"/>
  </svg>