<?xml version="1.0" encoding="UTF-8" standalone="no"?>
<!-- Created with Inkscape (http://www.inkscape.org/) -->

<svg
   xmlns:dc="http://purl.org/dc/elements/1.1/"
   xmlns:cc="http://creativecommons.org/ns#"
   xmlns:rdf="http://www.w3.org/1999/02/22-rdf-syntax-ns#"
   xmlns:svg="http://www.w3.org/2000/svg"
   xmlns="http://www.w3.org/2000/svg"
   xmlns:sodipodi="http://sodipodi.sourceforge.net/DTD/sodipodi-0.dtd"
   xmlns:inkscape="http://www.inkscape.org/namespaces/inkscape"
   width="300.05688"
   height="101.36031"
   id="svg2"
   version="1.1"
   inkscape:version="0.47 r22583"
   sodipodi:docname="Kistler-Logo.svg">
  <defs
     id="defs4">
    <inkscape:perspective
       sodipodi:type="inkscape:persp3d"
       inkscape:vp_x="0 : 526.18109 : 1"
       inkscape:vp_y="0 : 1000 : 0"
       inkscape:vp_z="744.09448 : 526.18109 : 1"
       inkscape:persp3d-origin="372.04724 : 350.78739 : 1"
       id="perspective10" />
    <inkscape:perspective
       id="perspective2824"
       inkscape:persp3d-origin="0.5 : 0.33333333 : 1"
       inkscape:vp_z="1 : 0.5 : 1"
       inkscape:vp_y="0 : 1000 : 0"
       inkscape:vp_x="0 : 0.5 : 1"
       sodipodi:type="inkscape:persp3d" />
    <inkscape:perspective
       id="perspective3631"
       inkscape:persp3d-origin="0.5 : 0.33333333 : 1"
       inkscape:vp_z="1 : 0.5 : 1"
       inkscape:vp_y="0 : 1000 : 0"
       inkscape:vp_x="0 : 0.5 : 1"
       sodipodi:type="inkscape:persp3d" />
    <inkscape:perspective
       id="perspective3631-7"
       inkscape:persp3d-origin="0.5 : 0.33333333 : 1"
       inkscape:vp_z="1 : 0.5 : 1"
       inkscape:vp_y="0 : 1000 : 0"
       inkscape:vp_x="0 : 0.5 : 1"
       sodipodi:type="inkscape:persp3d" />
    <inkscape:perspective
       id="perspective3631-0"
       inkscape:persp3d-origin="0.5 : 0.33333333 : 1"
       inkscape:vp_z="1 : 0.5 : 1"
       inkscape:vp_y="0 : 1000 : 0"
       inkscape:vp_x="0 : 0.5 : 1"
       sodipodi:type="inkscape:persp3d" />
    <inkscape:perspective
       id="perspective3671"
       inkscape:persp3d-origin="0.5 : 0.33333333 : 1"
       inkscape:vp_z="1 : 0.5 : 1"
       inkscape:vp_y="0 : 1000 : 0"
       inkscape:vp_x="0 : 0.5 : 1"
       sodipodi:type="inkscape:persp3d" />
    <inkscape:perspective
       id="perspective3693"
       inkscape:persp3d-origin="0.5 : 0.33333333 : 1"
       inkscape:vp_z="1 : 0.5 : 1"
       inkscape:vp_y="0 : 1000 : 0"
       inkscape:vp_x="0 : 0.5 : 1"
       sodipodi:type="inkscape:persp3d" />
    <inkscape:perspective
       id="perspective3727"
       inkscape:persp3d-origin="0.5 : 0.33333333 : 1"
       inkscape:vp_z="1 : 0.5 : 1"
       inkscape:vp_y="0 : 1000 : 0"
       inkscape:vp_x="0 : 0.5 : 1"
       sodipodi:type="inkscape:persp3d" />
    <inkscape:perspective
       id="perspective3757"
       inkscape:persp3d-origin="0.5 : 0.33333333 : 1"
       inkscape:vp_z="1 : 0.5 : 1"
       inkscape:vp_y="0 : 1000 : 0"
       inkscape:vp_x="0 : 0.5 : 1"
       sodipodi:type="inkscape:persp3d" />
    <inkscape:perspective
       id="perspective3757-5"
       inkscape:persp3d-origin="0.5 : 0.33333333 : 1"
       inkscape:vp_z="1 : 0.5 : 1"
       inkscape:vp_y="0 : 1000 : 0"
       inkscape:vp_x="0 : 0.5 : 1"
       sodipodi:type="inkscape:persp3d" />
    <inkscape:perspective
       id="perspective3800"
       inkscape:persp3d-origin="0.5 : 0.33333333 : 1"
       inkscape:vp_z="1 : 0.5 : 1"
       inkscape:vp_y="0 : 1000 : 0"
       inkscape:vp_x="0 : 0.5 : 1"
       sodipodi:type="inkscape:persp3d" />
    <inkscape:perspective
       id="perspective3825"
       inkscape:persp3d-origin="0.5 : 0.33333333 : 1"
       inkscape:vp_z="1 : 0.5 : 1"
       inkscape:vp_y="0 : 1000 : 0"
       inkscape:vp_x="0 : 0.5 : 1"
       sodipodi:type="inkscape:persp3d" />
  </defs>
  <sodipodi:namedview
     id="base"
     pagecolor="#ffffff"
     bordercolor="#666666"
     borderopacity="1.0"
     inkscape:pageopacity="0.0"
     inkscape:pageshadow="2"
     inkscape:zoom="4"
     inkscape:cx="83.931817"
     inkscape:cy="61.48097"
     inkscape:document-units="px"
     inkscape:current-layer="layer1"
     showgrid="false"
     inkscape:window-width="1920"
     inkscape:window-height="1030"
     inkscape:window-x="-4"
     inkscape:window-y="-4"
     inkscape:window-maximized="1" />
  <metadata
     id="metadata7">
    <rdf:RDF>
      <cc:Work
         rdf:about="">
        <dc:format>image/svg+xml</dc:format>
        <dc:type
           rdf:resource="http://purl.org/dc/dcmitype/StillImage" />
        <dc:title />
      </cc:Work>
    </rdf:RDF>
  </metadata>
  <g
     inkscape:label="Ebene 1"
     inkscape:groupmode="layer"
     id="layer1"
     transform="translate(-273.03571,-580.67074)">
    <g
       transform="scale(0.95784679,1.0440083)"
       style="font-size:21.80918121px;font-style:normal;font-variant:normal;font-weight:normal;font-stretch:normal;fill:none;stroke:#000000;stroke-width:1.81743181px;stroke-linecap:butt;stroke-linejoin:miter;stroke-opacity:1;font-family:Arial;-inkscape-font-specification:Arial"
       id="text2830">
      <path
         d="m 304.78642,634.47999 2.75809,0 0,1.54411 c 0.98681,-1.19978 2.16175,-1.79967 3.52483,-1.79968 0.72412,10e-6 1.35241,0.14909 1.88487,0.44725 0.53244,0.29819 0.96905,0.749 1.30983,1.35243 0.49694,-0.60343 1.03294,-1.05424 1.608,-1.35243 0.57503,-0.29816 1.18913,-0.44724 1.84228,-0.44725 0.83061,10e-6 1.53344,0.16862 2.10851,0.50582 0.57502,0.33723 1.00453,0.83241 1.28853,1.48554 0.20586,0.48277 0.3088,1.26369 0.30882,2.34278 l 0,7.23069 -2.99238,0 0,-6.46396 c -10e-6,-1.12168 -0.10295,-1.84582 -0.30882,-2.17239 -0.27689,-0.42596 -0.70285,-0.63894 -1.27788,-0.63895 -0.41887,10e-6 -0.81289,0.1278 -1.18204,0.38337 -0.36918,0.25558 -0.6354,0.63007 -0.79868,1.12347 -0.16329,0.49341 -0.24493,1.27256 -0.24492,2.33746 l 0,5.431 -2.99238,0 0,-6.19773 c 0,-1.10039 -0.0532,-1.81033 -0.15973,-2.1298 -0.1065,-0.31947 -0.27156,-0.55729 -0.49518,-0.71349 -0.22364,-0.15617 -0.52713,-0.23427 -0.91049,-0.23428 -0.46146,10e-6 -0.87678,0.12425 -1.24594,0.37272 -0.36917,0.24849 -0.63362,0.607 -0.79335,1.07555 -0.15974,0.46856 -0.2396,1.24594 -0.2396,2.33213 l 0,5.4949 -2.99237,0 z"
         style="font-weight:bold;fill:#000000;fill-opacity:1;stroke:none;font-family:Arial;-inkscape-font-specification:Arial"
         id="path2845" />
      <path
         d="m 330.9404,642.18988 2.98172,0.5005 c -0.38337,1.0933 -0.98859,1.9257 -1.81566,2.4972 -0.82708,0.57149 -1.86181,0.85724 -3.10418,0.85724 -1.96653,0 -3.42189,-0.64249 -4.3661,-1.92747 -0.74543,-1.0294 -1.11815,-2.32858 -1.11815,-3.89754 0,-1.87422 0.48986,-3.34201 1.46957,-4.40337 0.9797,-1.06134 2.21854,-1.59201 3.7165,-1.59202 1.68254,10e-6 3.01012,0.55553 3.98273,1.66657 0.9726,1.11105 1.43761,2.81312 1.39503,5.1062 l -7.49691,0 c 0.0213,0.88742 0.26267,1.57783 0.72413,2.07123 0.46145,0.49341 1.0365,0.74011 1.72514,0.74011 0.46855,0 0.86257,-0.12779 1.18204,-0.38337 0.31947,-0.25557 0.56084,-0.66733 0.72414,-1.23528 z m 0.17038,-3.02432 c -0.0213,-0.86611 -0.24493,-1.52458 -0.67089,-1.97539 -0.42596,-0.4508 -0.94422,-0.67621 -1.55475,-0.67622 -0.65315,10e-6 -1.1927,0.23784 -1.61865,0.71349 -0.42597,0.47566 -0.6354,1.1217 -0.6283,1.93812 z"
         style="font-weight:bold;fill:#000000;fill-opacity:1;stroke:none;font-family:Arial;-inkscape-font-specification:Arial"
         id="path2847" />
      <path
         d="m 338.76742,637.93027 -2.7155,-0.48985 c 0.30527,-1.09329 0.83063,-1.90262 1.57606,-2.42798 0.74543,-0.52534 1.85292,-0.78801 3.32249,-0.78802 1.33467,10e-6 2.32858,0.15797 2.98172,0.47388 0.65313,0.31593 1.11282,0.71704 1.37905,1.20334 0.26622,0.48631 0.39933,1.37905 0.39934,2.67822 l -0.0319,3.49288 c -10e-6,0.99391 0.0479,1.72692 0.14376,2.19902 0.0958,0.47211 0.27509,0.97794 0.53778,1.51749 l -2.96043,0 c -0.0781,-0.19879 -0.17394,-0.49341 -0.28752,-0.88387 -0.0497,-0.17749 -0.0852,-0.29462 -0.10649,-0.35142 -0.51116,0.49695 -1.05781,0.86967 -1.63995,1.11815 -0.58215,0.24847 -1.20334,0.37271 -1.86357,0.37271 -1.1643,0 -2.08189,-0.31592 -2.75278,-0.94776 -0.67088,-0.63184 -1.00633,-1.43052 -1.00633,-2.39603 0,-0.63894 0.15264,-1.20866 0.45791,-1.70917 0.30527,-0.50049 0.73301,-0.88386 1.28321,-1.15009 0.55019,-0.26622 1.34354,-0.49872 2.38005,-0.69751 1.39857,-0.26267 2.36763,-0.5076 2.90718,-0.73478 l 0,-0.29817 c -1e-5,-0.57504 -0.14199,-0.98503 -0.42596,-1.22996 -0.28398,-0.24492 -0.81998,-0.36739 -1.608,-0.3674 -0.53246,10e-6 -0.94777,0.10473 -1.24593,0.31415 -0.29818,0.20944 -0.53956,0.57683 -0.72414,1.10217 z m 4.00403,2.42798 c -0.38337,0.12779 -0.99036,0.28043 -1.82098,0.45791 -0.83063,0.17748 -1.37373,0.35142 -1.6293,0.5218 -0.39047,0.27688 -0.5857,0.62829 -0.58569,1.05425 -10e-6,0.41886 0.15618,0.78093 0.46855,1.0862 0.31237,0.30527 0.70993,0.45791 1.19269,0.45791 0.53955,0 1.05425,-0.17748 1.54411,-0.53245 0.36206,-0.26978 0.59989,-0.5999 0.71348,-0.99036 0.0781,-0.25557 0.11713,-0.74188 0.11714,-1.45892 z"
         style="font-weight:bold;fill:#000000;fill-opacity:1;stroke:none;font-family:Arial;-inkscape-font-specification:Arial"
         id="path2849" />
      <path
         d="m 347.61675,642.56259 3.00302,-0.4579 c 0.12779,0.58215 0.38691,1.02408 0.77738,1.3258 0.39046,0.30172 0.93711,0.45258 1.63995,0.45258 0.77382,0 1.35597,-0.14198 1.74644,-0.42596 0.26267,-0.19878 0.394,-0.465 0.39401,-0.79867 -10e-6,-0.22718 -0.071,-0.41531 -0.21298,-0.5644 -0.14909,-0.14199 -0.48276,-0.27332 -1.00101,-0.39402 -2.41378,-0.53244 -3.94368,-1.01875 -4.58972,-1.45891 -0.89452,-0.61054 -1.34178,-1.45891 -1.34178,-2.54512 0,-0.9797 0.38692,-1.80322 1.16075,-2.47057 0.77382,-0.66732 1.97361,-1.00099 3.59936,-1.001 1.54765,10e-6 2.69774,0.25203 3.45028,0.75608 0.75252,0.50406 1.27077,1.24949 1.55476,2.23629 l -2.82199,0.5218 c -0.1207,-0.44015 -0.34965,-0.77737 -0.68686,-1.01166 -0.33723,-0.23426 -0.81821,-0.3514 -1.44294,-0.35141 -0.78803,10e-6 -1.35243,0.11005 -1.6932,0.33012 -0.22718,0.15619 -0.34077,0.35852 -0.34076,0.60699 -1e-5,0.21299 0.0994,0.39402 0.29817,0.5431 0.26977,0.19879 1.20156,0.47921 2.79536,0.84127 1.5938,0.36208 2.70662,0.80578 3.33847,1.33113 0.62473,0.53245 0.9371,1.27434 0.93711,2.22564 -10e-6,1.03651 -0.43307,1.92748 -1.29918,2.67291 -0.86613,0.74543 -2.14756,1.11814 -3.84429,1.11814 -1.54056,0 -2.75987,-0.31237 -3.65794,-0.93711 -0.89807,-0.62474 -1.48554,-1.47311 -1.76241,-2.54512 z"
         style="font-weight:bold;fill:#000000;fill-opacity:1;stroke:none;font-family:Arial;-inkscape-font-specification:Arial"
         id="path2851" />
      <path
         d="m 368.25454,645.78925 0,-1.6932 c -0.41177,0.60345 -0.95309,1.0791 -1.62397,1.42697 -0.6709,0.34787 -1.37906,0.5218 -2.12448,0.5218 -0.75964,0 -1.44117,-0.16683 -2.04461,-0.5005 -0.60345,-0.33367 -1.04006,-0.80223 -1.30983,-1.40567 -0.26978,-0.60344 -0.40466,-1.43762 -0.40466,-2.50252 l 0,-7.15614 2.99237,0 0,5.19672 c 0,1.59026 0.055,2.56464 0.16506,2.92316 0.11003,0.35852 0.31059,0.64249 0.60167,0.85192 0.29107,0.20943 0.66023,0.31414 1.1075,0.31414 0.51114,0 0.96905,-0.14021 1.37372,-0.42063 0.40465,-0.28042 0.68153,-0.62829 0.83062,-1.04361 0.14908,-0.4153 0.22362,-1.43228 0.22363,-3.05094 l 0,-4.77076 2.99237,0 0,11.30926 z"
         style="font-weight:bold;fill:#000000;fill-opacity:1;stroke:none;font-family:Arial;-inkscape-font-specification:Arial"
         id="path2853" />
      <path
         d="m 377.00803,645.78925 -2.99237,0 0,-11.30926 2.77939,0 0,1.608 c 0.47565,-0.75962 0.90339,-1.26012 1.28321,-1.50151 0.37981,-0.24136 0.81109,-0.36205 1.29385,-0.36206 0.68153,10e-6 1.33822,0.18814 1.97007,0.56439 l -0.92646,2.60901 c -0.50407,-0.32656 -0.97262,-0.48984 -1.40567,-0.48985 -0.41887,10e-6 -0.77384,0.11537 -1.06491,0.34609 -0.29107,0.23074 -0.52003,0.64782 -0.68686,1.25126 -0.16684,0.60345 -0.25025,1.86713 -0.25025,3.79105 z"
         style="font-weight:bold;fill:#000000;fill-opacity:1;stroke:none;font-family:Arial;-inkscape-font-specification:Arial"
         id="path2855" />
      <path
         d="m 389.16921,642.18988 2.98172,0.5005 c -0.38338,1.0933 -0.98859,1.9257 -1.81566,2.4972 -0.82708,0.57149 -1.86181,0.85724 -3.10418,0.85724 -1.96653,0 -3.42189,-0.64249 -4.3661,-1.92747 -0.74543,-1.0294 -1.11815,-2.32858 -1.11815,-3.89754 0,-1.87422 0.48986,-3.34201 1.46957,-4.40337 0.9797,-1.06134 2.21854,-1.59201 3.7165,-1.59202 1.68254,10e-6 3.01012,0.55553 3.98273,1.66657 0.9726,1.11105 1.43761,2.81312 1.39503,5.1062 l -7.49691,0 c 0.0213,0.88742 0.26267,1.57783 0.72413,2.07123 0.46145,0.49341 1.0365,0.74011 1.72514,0.74011 0.46855,0 0.86257,-0.12779 1.18204,-0.38337 0.31947,-0.25557 0.56084,-0.66733 0.72414,-1.23528 z m 0.17038,-3.02432 c -0.0213,-0.86611 -0.24494,-1.52458 -0.67089,-1.97539 -0.42597,-0.4508 -0.94422,-0.67621 -1.55475,-0.67622 -0.65315,10e-6 -1.1927,0.23784 -1.61865,0.71349 -0.42597,0.47566 -0.6354,1.1217 -0.6283,1.93812 z"
         style="font-weight:bold;fill:#000000;fill-opacity:1;stroke:none;font-family:Arial;-inkscape-font-specification:Arial"
         id="path2857" />
      <path
         d="m 394.75994,645.78925 0,-2.99238 2.99237,0 0,2.99238 z"
         style="font-weight:bold;fill:#000000;fill-opacity:1;stroke:none;font-family:Arial;-inkscape-font-specification:Arial"
         id="path2859" />
      <path
         d="m 409.09351,637.93027 -2.71549,-0.48985 c 0.30527,-1.09329 0.83062,-1.90262 1.57605,-2.42798 0.74543,-0.52534 1.85292,-0.78801 3.32249,-0.78802 1.33467,10e-6 2.32858,0.15797 2.98173,0.47388 0.65313,0.31593 1.11281,0.71704 1.37904,1.20334 0.26622,0.48631 0.39933,1.37905 0.39934,2.67822 l -0.0319,3.49288 c -2e-5,0.99391 0.0479,1.72692 0.14376,2.19902 0.0958,0.47211 0.27509,0.97794 0.53777,1.51749 l -2.96042,0 c -0.0781,-0.19879 -0.17395,-0.49341 -0.28753,-0.88387 -0.0497,-0.17749 -0.0852,-0.29462 -0.10649,-0.35142 -0.51116,0.49695 -1.05781,0.86967 -1.63995,1.11815 -0.58215,0.24847 -1.20334,0.37271 -1.86357,0.37271 -1.1643,0 -2.08189,-0.31592 -2.75277,-0.94776 -0.67089,-0.63184 -1.00634,-1.43052 -1.00634,-2.39603 0,-0.63894 0.15264,-1.20866 0.45791,-1.70917 0.30527,-0.50049 0.73301,-0.88386 1.28321,-1.15009 0.55019,-0.26622 1.34355,-0.49872 2.38005,-0.69751 1.39857,-0.26267 2.36763,-0.5076 2.90718,-0.73478 l 0,-0.29817 c 0,-0.57504 -0.14199,-0.98503 -0.42596,-1.22996 -0.28398,-0.24492 -0.81998,-0.36739 -1.608,-0.3674 -0.53245,10e-6 -0.94776,0.10473 -1.24593,0.31415 -0.29818,0.20944 -0.53956,0.57683 -0.72414,1.10217 z m 4.00403,2.42798 c -0.38337,0.12779 -0.99036,0.28043 -1.82098,0.45791 -0.83063,0.17748 -1.37372,0.35142 -1.6293,0.5218 -0.39046,0.27688 -0.5857,0.62829 -0.58569,1.05425 -1e-5,0.41886 0.15618,0.78093 0.46855,1.0862 0.31237,0.30527 0.70993,0.45791 1.19269,0.45791 0.53955,0 1.05425,-0.17748 1.54411,-0.53245 0.36206,-0.26978 0.59989,-0.5999 0.71349,-0.99036 0.0781,-0.25557 0.11713,-0.74188 0.11713,-1.45892 z"
         style="font-weight:bold;fill:#000000;fill-opacity:1;stroke:none;font-family:Arial;-inkscape-font-specification:Arial"
         id="path2861" />
      <path
         d="m 429.28405,645.78925 -2.99238,0 0,-5.77177 c 0,-1.22108 -0.0639,-2.01088 -0.19168,-2.36941 -0.1278,-0.3585 -0.33545,-0.63715 -0.62297,-0.83594 -0.28753,-0.19878 -0.63362,-0.29817 -1.03827,-0.29818 -0.51826,10e-6 -0.98327,0.142 -1.39503,0.42596 -0.41176,0.28399 -0.69396,0.66025 -0.84659,1.1288 -0.15264,0.46856 -0.22896,1.33468 -0.22896,2.59836 l 0,5.12218 -2.99237,0 0,-11.30926 2.77939,0 0,1.66125 c 0.98681,-1.27787 2.22919,-1.91681 3.72716,-1.91682 0.66023,10e-6 1.26367,0.11892 1.81033,0.35674 0.54664,0.23784 0.96018,0.54133 1.24061,0.91049 0.28041,0.36917 0.47565,0.78804 0.5857,1.25658 0.11003,0.46857 0.16505,1.13945 0.16506,2.01267 z"
         style="font-weight:bold;fill:#000000;fill-opacity:1;stroke:none;font-family:Arial;-inkscape-font-specification:Arial"
         id="path2863" />
      <path
         d="m 434.56596,637.93027 -2.7155,-0.48985 c 0.30527,-1.09329 0.83062,-1.90262 1.57605,-2.42798 0.74543,-0.52534 1.85293,-0.78801 3.3225,-0.78802 1.33466,10e-6 2.32857,0.15797 2.98172,0.47388 0.65313,0.31593 1.11281,0.71704 1.37905,1.20334 0.26621,0.48631 0.39932,1.37905 0.39933,2.67822 l -0.0319,3.49288 c -10e-6,0.99391 0.0479,1.72692 0.14376,2.19902 0.0958,0.47211 0.27509,0.97794 0.53777,1.51749 l -2.96042,0 c -0.0781,-0.19879 -0.17394,-0.49341 -0.28752,-0.88387 -0.0497,-0.17749 -0.0852,-0.29462 -0.10649,-0.35142 -0.51117,0.49695 -1.05781,0.86967 -1.63995,1.11815 -0.58216,0.24847 -1.20335,0.37271 -1.86358,0.37271 -1.1643,0 -2.08189,-0.31592 -2.75277,-0.94776 -0.67089,-0.63184 -1.00633,-1.43052 -1.00633,-2.39603 0,-0.63894 0.15263,-1.20866 0.4579,-1.70917 0.30528,-0.50049 0.73301,-0.88386 1.28321,-1.15009 0.5502,-0.26622 1.34355,-0.49872 2.38006,-0.69751 1.39856,-0.26267 2.36762,-0.5076 2.90718,-0.73478 l 0,-0.29817 c -1e-5,-0.57504 -0.142,-0.98503 -0.42596,-1.22996 -0.28398,-0.24492 -0.81998,-0.36739 -1.608,-0.3674 -0.53246,10e-6 -0.94777,0.10473 -1.24594,0.31415 -0.29818,0.20944 -0.53955,0.57683 -0.72413,1.10217 z m 4.00403,2.42798 c -0.38338,0.12779 -0.99037,0.28043 -1.82098,0.45791 -0.83063,0.17748 -1.37373,0.35142 -1.6293,0.5218 -0.39047,0.27688 -0.5857,0.62829 -0.5857,1.05425 0,0.41886 0.15618,0.78093 0.46856,1.0862 0.31236,0.30527 0.70993,0.45791 1.19269,0.45791 0.53954,0 1.05424,-0.17748 1.5441,-0.53245 0.36206,-0.26978 0.59989,-0.5999 0.71349,-0.99036 0.0781,-0.25557 0.11713,-0.74188 0.11714,-1.45892 z"
         style="font-weight:bold;fill:#000000;fill-opacity:1;stroke:none;font-family:Arial;-inkscape-font-specification:Arial"
         id="path2865" />
      <path
         d="m 444.46953,645.78925 0,-15.61146 2.99238,0 0,15.61146 z"
         style="font-weight:bold;fill:#000000;fill-opacity:1;stroke:none;font-family:Arial;-inkscape-font-specification:Arial"
         id="path2867" />
      <path
         d="m 449.10186,634.47999 3.18406,0 2.70485,8.02936 2.64095,-8.02936 3.09886,0 -3.99338,10.8833 -0.71348,1.97006 c -0.26268,0.66024 -0.51293,1.16429 -0.75076,1.51216 -0.23783,0.34787 -0.51115,0.63007 -0.81997,0.8466 -0.30883,0.21653 -0.68864,0.38513 -1.13944,0.50583 -0.45082,0.12068 -0.96019,0.18103 -1.52814,0.18103 -0.57505,0 -1.13944,-0.0603 -1.69319,-0.18103 l -0.26623,-2.34279 c 0.46856,0.0923 0.89097,0.13844 1.26724,0.13844 0.69573,0 1.21043,-0.20411 1.5441,-0.61232 0.33367,-0.40821 0.58924,-0.92824 0.76673,-1.56008 z"
         style="font-weight:bold;fill:#000000;fill-opacity:1;stroke:none;font-family:Arial;-inkscape-font-specification:Arial"
         id="path2869" />
      <path
         d="m 461.45472,645.78925 0,-2.33214 4.23831,-4.8666 c 0.69573,-0.79512 1.21043,-1.35951 1.5441,-1.69319 -0.34787,0.0213 -0.80578,0.0355 -1.37372,0.0426 l -3.99338,0.0213 0,-2.48122 9.34983,0 0,2.11916 -4.3235,4.98373 -1.5228,1.6506 c 0.83061,-0.0497 1.34531,-0.0745 1.5441,-0.0745 l 4.63232,0 0,2.63031 z"
         style="font-weight:bold;fill:#000000;fill-opacity:1;stroke:none;font-family:Arial;-inkscape-font-specification:Arial"
         id="path2871" />
      <path
         d="m 480.11179,642.18988 2.98172,0.5005 c -0.38337,1.0933 -0.98859,1.9257 -1.81566,2.4972 -0.82708,0.57149 -1.86181,0.85724 -3.10418,0.85724 -1.96653,0 -3.42189,-0.64249 -4.3661,-1.92747 -0.74543,-1.0294 -1.11815,-2.32858 -1.11815,-3.89754 0,-1.87422 0.48986,-3.34201 1.46957,-4.40337 0.9797,-1.06134 2.21854,-1.59201 3.7165,-1.59202 1.68254,10e-6 3.01012,0.55553 3.98274,1.66657 0.97259,1.11105 1.4376,2.81312 1.39502,5.1062 l -7.49691,0 c 0.0213,0.88742 0.26267,1.57783 0.72413,2.07123 0.46146,0.49341 1.0365,0.74011 1.72514,0.74011 0.46855,0 0.86257,-0.12779 1.18204,-0.38337 0.31947,-0.25557 0.56084,-0.66733 0.72414,-1.23528 z m 0.17038,-3.02432 c -0.0213,-0.86611 -0.24493,-1.52458 -0.67089,-1.97539 -0.42596,-0.4508 -0.94422,-0.67621 -1.55475,-0.67622 -0.65315,10e-6 -1.1927,0.23784 -1.61865,0.71349 -0.42597,0.47566 -0.6354,1.1217 -0.62829,1.93812 z"
         style="font-weight:bold;fill:#000000;fill-opacity:1;stroke:none;font-family:Arial;-inkscape-font-specification:Arial"
         id="path2873" />
      <path
         d="m 485.70252,645.78925 0,-2.99238 2.99237,0 0,2.99238 z"
         style="font-weight:bold;fill:#000000;fill-opacity:1;stroke:none;font-family:Arial;-inkscape-font-specification:Arial"
         id="path2875" />
      <path
         d="m 497.79981,632.94653 0,-2.76874 2.99237,0 0,2.76874 z m 0,12.84272 0,-11.30926 2.99237,0 0,11.30926 z"
         style="font-weight:bold;fill:#000000;fill-opacity:1;stroke:none;font-family:Arial;-inkscape-font-specification:Arial"
         id="path2877" />
      <path
         d="m 514.13539,645.78925 -2.99237,0 0,-5.77177 c -10e-6,-1.22108 -0.0639,-2.01088 -0.19169,-2.36941 -0.12779,-0.3585 -0.33545,-0.63715 -0.62296,-0.83594 -0.28754,-0.19878 -0.63363,-0.29817 -1.03828,-0.29818 -0.51826,10e-6 -0.98327,0.142 -1.39502,0.42596 -0.41177,0.28399 -0.69397,0.66025 -0.8466,1.1288 -0.15264,0.46856 -0.22896,1.33468 -0.22895,2.59836 l 0,5.12218 -2.99238,0 0,-11.30926 2.7794,0 0,1.66125 c 0.9868,-1.27787 2.22918,-1.91681 3.72715,-1.91682 0.66023,10e-6 1.26367,0.11892 1.81033,0.35674 0.54664,0.23784 0.96018,0.54133 1.24061,0.91049 0.28042,0.36917 0.47565,0.78804 0.5857,1.25658 0.11003,0.46857 0.16505,1.13945 0.16506,2.01267 z"
         style="font-weight:bold;fill:#000000;fill-opacity:1;stroke:none;font-family:Arial;-inkscape-font-specification:Arial"
         id="path2879" />
      <path
         d="m 527.46795,645.78925 -2.99237,0 0,-5.77177 c -1e-5,-1.22108 -0.0639,-2.01088 -0.19168,-2.36941 -0.1278,-0.3585 -0.33545,-0.63715 -0.62297,-0.83594 -0.28753,-0.19878 -0.63362,-0.29817 -1.03828,-0.29818 -0.51826,10e-6 -0.98326,0.142 -1.39502,0.42596 -0.41177,0.28399 -0.69396,0.66025 -0.8466,1.1288 -0.15264,0.46856 -0.22895,1.33468 -0.22895,2.59836 l 0,5.12218 -2.99237,0 0,-11.30926 2.77939,0 0,1.66125 c 0.9868,-1.27787 2.22919,-1.91681 3.72716,-1.91682 0.66023,10e-6 1.26367,0.11892 1.81033,0.35674 0.54664,0.23784 0.96017,0.54133 1.24061,0.91049 0.28041,0.36917 0.47564,0.78804 0.58569,1.25658 0.11003,0.46857 0.16505,1.13945 0.16506,2.01267 z"
         style="font-weight:bold;fill:#000000;fill-opacity:1;stroke:none;font-family:Arial;-inkscape-font-specification:Arial"
         id="path2881" />
      <path
         d="m 529.82139,639.97488 c -10e-6,-0.9939 0.24492,-1.95586 0.73478,-2.88588 0.48985,-0.93 1.18381,-1.63994 2.08188,-2.1298 0.89806,-0.48985 1.90084,-0.73477 3.00835,-0.73478 1.71093,10e-6 3.11305,0.55553 4.20636,1.66657 1.09328,1.11105 1.63993,2.51495 1.63994,4.21168 -10e-6,1.71095 -0.55198,3.12904 -1.65592,4.25428 -1.10395,1.12525 -2.49365,1.68787 -4.16909,1.68787 -1.03651,0 -2.02509,-0.23428 -2.96575,-0.70283 -0.94066,-0.46856 -1.65592,-1.15542 -2.14577,-2.06059 -0.48986,-0.90516 -0.73479,-2.00733 -0.73478,-3.30652 z m 3.06691,0.15974 c 0,1.1217 0.26622,1.98072 0.79868,2.57706 0.53244,0.59635 1.18913,0.89452 1.97006,0.89452 0.78093,0 1.43584,-0.29817 1.96475,-0.89452 0.52889,-0.59634 0.79334,-1.46246 0.79335,-2.59836 -10e-6,-1.10749 -0.26446,-1.95941 -0.79335,-2.55576 -0.52891,-0.59634 -1.18382,-0.89451 -1.96475,-0.89452 -0.78093,10e-6 -1.43762,0.29818 -1.97006,0.89452 -0.53246,0.59635 -0.79868,1.45537 -0.79868,2.57706 z"
         style="font-weight:bold;fill:#000000;fill-opacity:1;stroke:none;font-family:Arial;-inkscape-font-specification:Arial"
         id="path2883" />
      <path
         d="m 546.95565,645.78925 -4.55778,-11.30926 3.14146,0 2.1298,5.77177 0.61765,1.92747 c 0.16327,-0.48985 0.26621,-0.81287 0.30882,-0.96906 0.0994,-0.31947 0.20587,-0.63894 0.31947,-0.95841 l 2.1511,-5.77177 3.07756,0 -4.49388,11.30926 z"
         style="font-weight:bold;fill:#000000;fill-opacity:1;stroke:none;font-family:Arial;-inkscape-font-specification:Arial"
         id="path2885" />
      <path
         d="m 558.22231,637.93027 -2.7155,-0.48985 c 0.30527,-1.09329 0.83062,-1.90262 1.57605,-2.42798 0.74543,-0.52534 1.85293,-0.78801 3.32249,-0.78802 1.33467,10e-6 2.32858,0.15797 2.98173,0.47388 0.65313,0.31593 1.11281,0.71704 1.37905,1.20334 0.26621,0.48631 0.39932,1.37905 0.39933,2.67822 l -0.0319,3.49288 c -10e-6,0.99391 0.0479,1.72692 0.14376,2.19902 0.0958,0.47211 0.27509,0.97794 0.53777,1.51749 l -2.96042,0 c -0.0781,-0.19879 -0.17394,-0.49341 -0.28753,-0.88387 -0.0497,-0.17749 -0.0852,-0.29462 -0.10649,-0.35142 -0.51116,0.49695 -1.0578,0.86967 -1.63994,1.11815 -0.58216,0.24847 -1.20335,0.37271 -1.86358,0.37271 -1.1643,0 -2.08189,-0.31592 -2.75277,-0.94776 -0.67089,-0.63184 -1.00633,-1.43052 -1.00633,-2.39603 0,-0.63894 0.15263,-1.20866 0.4579,-1.70917 0.30527,-0.50049 0.73301,-0.88386 1.28321,-1.15009 0.5502,-0.26622 1.34355,-0.49872 2.38006,-0.69751 1.39856,-0.26267 2.36762,-0.5076 2.90718,-0.73478 l 0,-0.29817 c -1e-5,-0.57504 -0.142,-0.98503 -0.42596,-1.22996 -0.28399,-0.24492 -0.81999,-0.36739 -1.60801,-0.3674 -0.53245,10e-6 -0.94776,0.10473 -1.24593,0.31415 -0.29818,0.20944 -0.53955,0.57683 -0.72413,1.10217 z m 4.00403,2.42798 c -0.38338,0.12779 -0.99037,0.28043 -1.82099,0.45791 -0.83062,0.17748 -1.37372,0.35142 -1.62929,0.5218 -0.39047,0.27688 -0.5857,0.62829 -0.5857,1.05425 0,0.41886 0.15618,0.78093 0.46856,1.0862 0.31236,0.30527 0.70993,0.45791 1.19269,0.45791 0.53954,0 1.05424,-0.17748 1.5441,-0.53245 0.36206,-0.26978 0.59989,-0.5999 0.71349,-0.99036 0.0781,-0.25557 0.11713,-0.74188 0.11714,-1.45892 z"
         style="font-weight:bold;fill:#000000;fill-opacity:1;stroke:none;font-family:Arial;-inkscape-font-specification:Arial"
         id="path2887" />
      <path
         d="m 573.31196,634.47999 0,2.38538 -2.04461,0 0,4.55778 c 0,0.92292 0.0195,1.46069 0.0586,1.61333 0.039,0.15263 0.12778,0.27865 0.26623,0.37804 0.13843,0.0994 0.30704,0.14908 0.50582,0.14908 0.27687,0 0.67798,-0.0958 1.20334,-0.28752 l 0.25558,2.32148 c -0.69574,0.29818 -1.48377,0.44726 -2.36408,0.44726 -0.53956,0 -1.02586,-0.0905 -1.45892,-0.27155 -0.43306,-0.18103 -0.75076,-0.41531 -0.95308,-0.70283 -0.20234,-0.28753 -0.34255,-0.67621 -0.42064,-1.16607 -0.0639,-0.34787 -0.0958,-1.0507 -0.0958,-2.1085 l 0,-4.9305 -1.37372,0 0,-2.38538 1.37372,0 0,-2.24694 3.00302,-1.74644 0,3.99338 z"
         style="font-weight:bold;fill:#000000;fill-opacity:1;stroke:none;font-family:Arial;-inkscape-font-specification:Arial"
         id="path2889" />
      <path
         d="m 581.95897,642.18988 2.98172,0.5005 c -0.38337,1.0933 -0.98859,1.9257 -1.81565,2.4972 -0.82708,0.57149 -1.86181,0.85724 -3.10419,0.85724 -1.96652,0 -3.42189,-0.64249 -4.3661,-1.92747 -0.74543,-1.0294 -1.11814,-2.32858 -1.11814,-3.89754 0,-1.87422 0.48985,-3.34201 1.46956,-4.40337 0.97971,-1.06134 2.21854,-1.59201 3.71651,-1.59202 1.68253,10e-6 3.01011,0.55553 3.98273,1.66657 0.9726,1.11105 1.4376,2.81312 1.39502,5.1062 l -7.49691,0 c 0.0213,0.88742 0.26268,1.57783 0.72414,2.07123 0.46145,0.49341 1.03649,0.74011 1.72514,0.74011 0.46855,0 0.86256,-0.12779 1.18204,-0.38337 0.31946,-0.25557 0.56084,-0.66733 0.72413,-1.23528 z m 0.17038,-3.02432 c -0.0213,-0.86611 -0.24493,-1.52458 -0.67088,-1.97539 -0.42597,-0.4508 -0.94422,-0.67621 -1.55476,-0.67622 -0.65314,10e-6 -1.19269,0.23784 -1.61865,0.71349 -0.42596,0.47566 -0.63539,1.1217 -0.62829,1.93812 z"
         style="font-weight:bold;fill:#000000;fill-opacity:1;stroke:none;font-family:Arial;-inkscape-font-specification:Arial"
         id="path2891" />
      <path
         d="m 587.54969,645.78925 0,-2.99238 2.99237,0 0,2.99238 z"
         style="font-weight:bold;fill:#000000;fill-opacity:1;stroke:none;font-family:Arial;-inkscape-font-specification:Arial"
         id="path2893" />
    </g>
    <g
       id="g3715"
       transform="matrix(0.9546549,0,0,0.9546549,19.451901,28.805449)">
      <rect
         y="584.32648"
         x="285.35718"
         height="49.10714"
         width="7.3214288"
         id="rect3606"
         style="fill:#0a7fc4;fill-opacity:1;fill-rule:nonzero;stroke:none" />
      <path
         sodipodi:nodetypes="ccccccc"
         id="path3608"
         d="m 332.8125,583.65682 -59.77679,25.13393 59.64286,25.17857 0,-7.32142 -41.96429,-17.72321 42.09822,-17.79019 0,-7.47768 z"
         style="fill:#0a7fc4;fill-opacity:1;fill-rule:nonzero;stroke:none" />
    </g>
    <rect
       style="fill:#0a7fc4;fill-opacity:1;fill-rule:nonzero;stroke:none"
       id="rect3606-1"
       width="6.9894381"
       height="46.880371"
       x="343.55508"
       y="586.6355" />
    <g
       id="g3707"
       transform="matrix(0.9546549,0,0,0.9546549,19.451901,28.805449)">
      <rect
         y="586.4693"
         x="410.64734"
         height="46.964283"
         width="7.3214288"
         id="rect3606-4"
         style="fill:#0a7fc4;fill-opacity:1;fill-rule:nonzero;stroke:none" />
      <rect
         transform="matrix(0,1,-1,0,0,0)"
         y="-434.73215"
         x="584.26971"
         height="41.249996"
         width="6.7532182"
         id="rect3606-9"
         style="fill:#0a7fc4;fill-opacity:1;fill-rule:nonzero;stroke:none" />
    </g>
    <g
       id="g3711"
       transform="matrix(0.9546549,0,0,0.9546549,19.451901,28.805449)">
      <rect
         y="584.32648"
         x="438.95847"
         height="49.10714"
         width="7.3214288"
         id="rect3606-1-4"
         style="fill:#0a7fc4;fill-opacity:1;fill-rule:nonzero;stroke:none" />
      <rect
         transform="matrix(0,1,-1,0,0,0)"
         y="-473.06131"
         x="626.11066"
         height="32.376488"
         width="7.3214288"
         id="rect3606-1-4-8"
         style="fill:#0a7fc4;fill-opacity:1;fill-rule:nonzero;stroke:none" />
    </g>
    <g
       id="g3780"
       transform="matrix(0.9546549,0,0,0.9546549,19.451901,28.805449)">
      <rect
         y="584.32422"
         x="477.9642"
         height="49.10714"
         width="7.3214288"
         id="rect3606-1-4-2"
         style="fill:#0a7fc4;fill-opacity:1;fill-rule:nonzero;stroke:none" />
      <rect
         transform="matrix(0,1,-1,0,0,0)"
         y="-516.69202"
         x="626.1084"
         height="37.001488"
         width="7.3214288"
         id="rect3606-1-4-8-4"
         style="fill:#0a7fc4;fill-opacity:1;fill-rule:nonzero;stroke:none" />
      <rect
         transform="matrix(0,1,-1,0,0,0)"
         y="-516.65698"
         x="584.32648"
         height="37.001488"
         width="7.3214288"
         id="rect3606-1-4-8-4-5"
         style="fill:#0a7fc4;fill-opacity:1;fill-rule:nonzero;stroke:none" />
      <rect
         transform="matrix(0,1,-1,0,0,0)"
         y="-513.87573"
         x="604.13898"
         height="32.938988"
         width="7.3214288"
         id="rect3606-1-4-8-4-1"
         style="fill:#0a7fc4;fill-opacity:1;fill-rule:nonzero;stroke:none" />
    </g>
    <g
       transform="matrix(0.97993464,0,0,0.92023408,25.093689,28.383612)"
       style="font-size:71.22649384px;font-style:normal;font-variant:normal;font-weight:normal;font-stretch:normal;fill:none;stroke:#000000;stroke-width:5.9355402px;stroke-linecap:butt;stroke-linejoin:miter;stroke-opacity:1;font-family:Arial;-inkscape-font-specification:Arial"
       id="text3786">
      <path
         d="m 545.47575,657.60242 -7.21835,-0.0918 c -0.30362,-0.48973 -0.8531,-0.62014 -1.52813,-5.87371 l -0.7055,-6.76185 c -0.59959,-3.83257 -2.15467,-6.67445 -4.40694,-8.25058 -2.05402,-1.43739 -5.19351,-1.72226 -7.79028,-1.72228 l -12.04975,0 -0.005,22.70018 -7.17758,0 0,-50.98537 22.57129,0 c 3.94154,5e-5 7.16435,0.38261 9.66844,1.14769 2.50402,0.76518 4.54436,2.37658 6.12103,4.83422 1.57658,2.45773 2.36489,5.22842 2.36494,8.31207 -5e-5,3.52427 -1.02022,6.46885 -3.06051,8.83376 -2.04039,2.36497 -1.42189,1.52183 -4.71095,3.43259 l 1.57845,0.87384 c 2.07872,1.54904 3.213,4.39118 3.53539,9.67455 0.48463,3.55901 -0.20842,-0.40646 1.45388,10.67702 0.62931,1.92957 0.94959,2.37761 1.3598,3.19963 l 0,4e-5 -2.3e-4,0 z m -33.72264,-29.9666 14.75469,0 c 4.19658,0 7.13206,-0.1106 9.02173,-1.43222 1.8896,-1.32155 2.83442,-2.04653 2.83446,-5.29257 -4e-5,-5.79638 -3.64019,-6.67731 -10.92047,-6.67736 l -15.65996,0 -0.0304,15.51112 -2e-5,0 -3e-5,-2.10897 z"
         style="fill:#0a7fc4;fill-opacity:1;stroke:none;font-family:Microsoft Sans Serif;-inkscape-font-specification:Microsoft Sans Serif"
         id="path3843"
         sodipodi:nodetypes="ccccsccccccssssccccccccsccccccc" />
    </g>
    <g
       transform="scale(1.0506507,0.95179114)"
       style="font-size:68.31752014px;font-style:normal;font-variant:normal;font-weight:normal;font-stretch:normal;fill:none;stroke:#000000;stroke-width:5.69312572px;stroke-linecap:butt;stroke-linejoin:miter;stroke-opacity:1;font-family:Arial;-inkscape-font-specification:Arial"
       id="text3786-7">
      <path
         d="m 360.09178,666.24405 c -6.89403,0 -12.04786,-1.54559 -15.4615,-4.63679 -3.41366,-3.09118 -5.20944,-7.0608 -5.38735,-11.90886 l 6.23798,0 c 0.33357,3.64717 1.85137,5.97216 4.55339,7.71789 2.70199,1.74575 5.96553,2.52576 9.79062,2.52575 3.62489,10e-6 6.54377,-0.65213 8.75652,-2.14213 2.21276,-1.49 3.3191,-3.14225 3.31913,-5.69972 -3e-5,-2.69088 -1.14533,-4.27643 -3.43589,-5.49958 -2.29062,-1.22311 -6.23244,-2.42956 -11.82547,-3.61936 -5.59306,-1.18975 -9.60716,-3.21244 -12.04229,-5.32515 -2.43515,-2.11265 -3.65273,-4.92585 -3.65272,-8.43961 -1e-5,-3.95846 1.5845,-7.20532 4.75354,-9.74059 3.16901,-2.53517 7.37769,-3.80278 12.62606,-3.80283 5.51519,5e-5 9.96294,1.27878 13.34327,3.83619 3.38025,2.5575 5.17047,6.1713 5.37066,10.8414 l -6.30469,0 c -0.64496,-5.91547 -4.69241,-8.22316 -12.14237,-8.22321 -3.6027,5e-5 -6.39367,0.67833 -8.3729,2.03485 -1.97927,1.35661 -2.96889,2.50789 -2.96888,4.75396 -1e-5,2.04601 0.79503,3.58048 2.38511,4.60343 1.59006,1.02301 4.55893,2.01264 8.90663,2.96888 4.34765,0.95629 7.80022,1.90144 10.35771,2.83544 2.55742,0.93405 4.74794,2.38513 6.57156,4.35324 1.82354,1.96815 2.73533,4.609 2.73537,7.92257 -4e-5,4.20313 -1.67351,7.69462 -5.02041,10.47446 -3.34697,2.77985 -7.71132,4.16977 -13.09308,4.16977 z"
         style="fill:#0a7fc4;fill-opacity:1;stroke:none;font-family:Microsoft Sans Serif;-inkscape-font-specification:Microsoft Sans Serif"
         id="path3898"
         sodipodi:nodetypes="csccsszssssssssccsssssssssc" />
    </g>
  </g>
</svg>
