<svg id="Layer_1" data-name="Layer 1" xmlns="http://www.w3.org/2000/svg" viewBox="0 0 1800 1800"><defs><style>.cls-1{fill:#18bce6;}</style></defs><rect class="cls-1" x="501.93" y="1298.16" width="527.68" height="90.78" rx="45.39"/><path class="cls-1" d="M862.19,1042.37H991.45a49.17,49.17,0,0,1,49.17,49.17v1A45.58,45.58,0,0,1,995,1138.13H858.59A45.58,45.58,0,0,1,813,1092.55v-1a49.17,49.17,0,0,1,49.17-49.17Z" transform="translate(-457.73 728.77) rotate(-35)"/><path class="cls-1" d="M760.1,1129.57c0,.6,0,1.21,0,1.81v1.52a12.17,12.17,0,0,1-.08,1.7c-1.36,23.56-21.71,42.25-46.6,42.25s-45.27-18.76-46.59-42.4a19.27,19.27,0,0,1,0-2.28c.06-.81.12-1.91.12-2.6s0-1.1,0-1.67v-.19a35.94,35.94,0,0,0-71.76-.41c0,.75-.07,1.51-.07,2.27,0,1.24.18,9.4.18,9.45-1.06,24.14-21.53,37.83-46.63,37.83s-45.36-19.07-46.61-43c0-.45,0-.87,0-1.32a8.7,8.7,0,0,1,0-1v-1.89a129.09,129.09,0,0,1,258.17,0Z"/><path class="cls-1" d="M1474.4,502.5c-4.17.21-120.11,11.41-151.83,14.45a10,10,0,0,1-10.49-6.35l-28.83-83.14-23-66s-18.69-54.73-37.8-107.83c-9.1-25.25-18.34-50.18-25.72-68.63a47.29,47.29,0,0,0-18.52-22.52,101.34,101.34,0,0,0-9.45-5,76.37,76.37,0,0,0-40.62-7.14c-9.25,1-20,2.42-32.49,4.69l-48.24,10.59-45.14,10-76.08,16.72-68.48,15.07a33.94,33.94,0,0,0-16.94,9,2.59,2.59,0,0,1-.41.45c-.52.41-1,.89-1.45,1.34L687.08,373.77c-9.1,9.31-10.66,22.17-5.38,33.45a38.21,38.21,0,0,0,11.86,14.17,41.33,41.33,0,0,0,15.11,7c13,3.17,27,.13,35.76-8.83l1.07-1.14L881.57,279.07a55.77,55.77,0,0,1,26.63-15l77.48-19.38,41.87-10.45,34.83-8.72,49-12.28c21.27-5.31,34,1.07,41.41,20.45,7.62,19.76,16,45.93,23.11,69,8.93,29.31,15.69,53.66,15.69,53.66l18,58.79s45.18,144.11,48.11,147.53c5.41,9.38,15.28,16.34,26.69,19.1a46.07,46.07,0,0,0,15.73,1l114.73-16.8c6.93-1,13,5,11.14,11.11a103.52,103.52,0,0,1-4.35,11.07c-29.24,65.14-104.83,99.69-178.7,93.55a10.35,10.35,0,0,1-3.1-.68,9.52,9.52,0,0,1-5.76-6l-24.69-80.7-19.49-63.62-.72-2.31c-3.93-12.93-15.86-22.76-29.86-26.14a45.16,45.16,0,0,0-18-.72,34.08,34.08,0,0,0-17.55,8.17,26.62,26.62,0,0,0-8,28.31l33.34,109,15.21,49.56,2,6.72,1.42,4.59,13.07,42.72c3.65,12,14.69,21.14,27.69,24.32l21.76,5.69c44.45,15.07,72,56.24,62.35,95.83C1285,908.14,1256,929.77,1221,933.73c-8.93,1-27.8-.14-27.8-.14L1168.33,931a15.38,15.38,0,0,1-1.8-.31l-63.91-15.51L773.84,835.35,491,766.69l.11-.42a102.9,102.9,0,0,1-32.49-17.86c-24.34-19.79-36.83-49.31-29.9-78,9.63-39.59,53.46-65,99.87-58.07,0,0,14.73,2.24,21.14,3.17,2.8.41,5.62,1.07,8.42,1.72l20.55,5,290.95,70.53c1.17.27,2.34.51,3.48.69a39.24,39.24,0,0,0,23.73-3.42c7.72-3.9,13.55-10.45,15.55-18.72,2.27-9.45-.45-19.14-6.59-26.9a36.28,36.28,0,0,0-6.48-6.38A44.21,44.21,0,0,0,882,629.68L634.39,569.57a10.86,10.86,0,0,1-5.8-3.55,7.84,7.84,0,0,1,.25-10.69l52.21-53.45c12.38-12.69,9.72-32.45-6-44.18a45.67,45.67,0,0,0-16.28-7.58,44.84,44.84,0,0,0-18.42-.66,36.83,36.83,0,0,0-20.14,10.24l-58.69,60.11-34,34.86a8.87,8.87,0,0,1-1.24,1,9.81,9.81,0,0,1-5.45,1.65c-28.89.28-56.24,6.94-79.83,18.73-37,18.55-64.66,49.83-74.28,89.45a106,106,0,0,0-3,23.73c-.48,37.38,18.66,73.62,50.59,99.31-41.07,38.9-92.49,90.42-97.11,99.29-7.93,15.24-6.52,33.41-6.52,37.55v538.86c0,7,.56,21.48,6.52,32.62,7.9,14.73,133.53,141.36,143.73,147.53s21.52,5.55,28.7,5.55h546.1c5.38,0,22.9-.72,34.21-5.55s131.66-126.53,140-140c7-11.31,11.14-26.41,11.14-34.07V994.67a152.7,152.7,0,0,0,65.24-15.7c31-15.55,54.25-41.79,62.32-75.07a131.27,131.27,0,0,0,3.45-23.66c2.86-58.72-35.32-115.83-95.84-145.73-1.51-.76-3-1.48-4.62-2.2a4.81,4.81,0,0,1-.07-2.32c.24-1,1.52-1.06,3-.82s3.58.79,4.93.89c100.8,6.87,181.63-41.24,215.08-125.83C1492.89,557.85,1496,501.39,1474.4,502.5Zm-349.12,941.64a29.77,29.77,0,0,1-8.83,21.14l-75,75a47.58,47.58,0,0,1-33.66,14H526.69a50.17,50.17,0,0,1-35.48-14.69c-26.11-26.18-78-78.08-78-78.08l-.07-.07a23.1,23.1,0,0,1-6.73-16.3V965.77a81.72,81.72,0,0,1,24.21-58.08c16.07-15.82,36.83-36.48,52.11-51.69a71.12,71.12,0,0,1,50.1-20.65h0a67.1,67.1,0,0,1,15.78,1.88l562.72,136.61a18.21,18.21,0,0,1,13.92,17.7Z"/></svg>